<?xml version="1.0" standalone="no"?><!DOCTYPE svg PUBLIC "-//W3C//DTD SVG 1.1//EN" "http://www.w3.org/Graphics/SVG/1.1/DTD/svg11.dtd"><svg t="1586674210668" class="icon" viewBox="0 0 1310 1024" version="1.1" xmlns="http://www.w3.org/2000/svg" p-id="4307" xmlns:xlink="http://www.w3.org/1999/xlink" width="255.859375" height="200"><defs><style type="text/css"></style></defs><path d="M812.373333 328.772267a31.402667 31.402667 0 0 0-53.6576-22.254934L655.36 409.941333 552.004267 306.5856a31.470933 31.470933 0 0 0-44.4416 44.4416L610.986667 454.4512H529.749333a31.3344 31.3344 0 0 0-31.402666 31.402667 31.402667 31.402667 0 0 0 31.402666 31.402666h94.208V580.266667H529.749333a31.402667 31.402667 0 1 0 0 62.805333h94.208v52.360533a31.402667 31.402667 0 0 0 62.805334 0v-52.565333h94.208a31.402667 31.402667 0 1 0 0-62.805333h-94.208v-62.805334h94.208a31.402667 31.402667 0 0 0 31.402666-31.402666 31.402667 31.402667 0 0 0-31.402666-31.402667h-81.237334l103.424-103.424a31.3344 31.3344 0 0 0 9.216-22.254933z" fill="#515151" p-id="4308"></path><path d="M1310.72 307.2V102.4a102.4 102.4 0 0 0-102.4-102.4H102.4A102.4 102.4 0 0 0 0 102.4v204.8a204.8 204.8 0 0 1 0 409.6v204.8a102.4 102.4 0 0 0 102.4 102.4h1105.92a102.4 102.4 0 0 0 102.4-102.4v-204.8a204.8 204.8 0 0 1 0-409.6z m-655.36 532.48a327.68 327.68 0 1 1 327.68-327.68 327.68 327.68 0 0 1-327.68 327.68z" fill="#515151" p-id="4309"></path></svg>