<?xml version="1.0" standalone="no"?><!DOCTYPE svg PUBLIC "-//W3C//DTD SVG 1.1//EN" "http://www.w3.org/Graphics/SVG/1.1/DTD/svg11.dtd"><svg t="1586674236197" class="icon" viewBox="0 0 1024 1024" version="1.1" xmlns="http://www.w3.org/2000/svg" p-id="4792" xmlns:xlink="http://www.w3.org/1999/xlink" width="200" height="200"><defs><style type="text/css"></style></defs><path d="M909 959H115a50 50 0 0 1-50-50V179a50 50 0 0 1 50-50h119a30 30 0 0 1 0 60c-0.067 0-0.131-0.01-0.2-0.01H145a20 20 0 0 0-20 20v75.268h774V208.99a20 20 0 0 0-20-20h-88.8c-0.067 0-0.131 0.01-0.2 0.01a30 30 0 0 1 0-60h119a50 50 0 0 1 50 50v730a50 50 0 0 1-50 50z m-10-614.742H125V878.99a20 20 0 0 0 20 20h734a20 20 0 0 0 20-20V344.258zM610.532 720.166a29.987 29.987 0 0 1-42.449 0l-134.422-134.6-134.429 134.607a30.036 30.036 0 1 1-42.449-42.506L412.429 521.81a29.987 29.987 0 0 1 42.449 0L589.3 656.41 723.73 521.8a30.036 30.036 0 1 1 42.449 42.506zM704 253a30 30 0 0 1-30-30V95a30 30 0 0 1 60 0v128a30 30 0 0 1-30 30z m-86-64c-0.067 0-0.131-0.01-0.2-0.01H406.2c-0.067 0-0.131 0.01-0.2 0.01a30 30 0 0 1 0-60h212a30 30 0 0 1 0 60z m-298 64a30 30 0 0 1-30-30V95a30 30 0 0 1 60 0v128a30 30 0 0 1-30 30z" p-id="4793" fill="#2c2c2c"></path></svg>